<?xml version="1.0" encoding="UTF-8"?>
<svg xmlns="http://www.w3.org/2000/svg" width="100" height="100" viewBox="0 0 100 100" fill="none">
  <path d="M13.6824 59.7291C13.1442 57.5865 14.4449 55.4134 16.5875 54.8752L83.4601 38.0798C85.6027 37.5416 87.7758 38.8423 88.3139 40.9849L96.1448 72.1641C96.6829 74.3067 95.3822 76.4798 93.2397 77.018L26.3671 93.8135C24.2245 94.3516 22.0514 93.0509 21.5132 90.9083L13.6824 59.7291Z" fill="#E0FAFC"></path>
  <path d="M41.8793 14.0293L84.8998 27.3711L89.3821 45.2178L14.7506 63.962L10.5739 47.3321L41.8793 14.0293Z" fill="#086981"></path>
  <rect x="14" y="48" width="71" height="38" transform="rotate(-14.4644 14 48)" fill="#086981"></rect>
  <path d="M23.1136 19.0126C22.6981 16.8429 24.1202 14.7472 26.29 14.3317L52.5395 9.30553C54.7092 8.89008 56.8049 10.3122 57.2204 12.4819L67.2281 64.7474C67.6435 66.9172 66.2214 69.0129 64.0517 69.4283L37.8021 74.4545C35.6324 74.87 33.5367 73.4479 33.1213 71.2781L23.1136 19.0126Z" fill="#66DEE0"></path>
  <path d="M34.6202 10.6907C34.7372 8.48463 36.6204 6.79112 38.8264 6.90809L65.5153 8.32327C67.7214 8.44024 69.4149 10.3234 69.2979 12.5295L66.4801 65.6698C66.3632 67.8759 64.48 69.5694 62.274 69.4524L35.5851 68.0372C33.379 67.9203 31.6855 66.0371 31.8025 63.8311L34.6202 10.6907Z" fill="#47D6DB"></path>
  <path d="M49.5477 8.46541C50.2236 6.36221 52.4765 5.20514 54.5797 5.88104L80.0245 14.058C82.1277 14.7339 83.2847 16.9868 82.6088 19.09L65.7157 71.6573C65.3777 72.7089 64.2513 73.2875 63.1997 72.9495L33.9467 63.5487C32.8951 63.2108 32.3166 62.0843 32.6545 61.0327L49.5477 8.46541Z" fill="#29CFD4"></path>
  <path d="M12.708 55.8496L54.5061 64.3242L87.3396 37.1054L96.1448 72.1641C96.6829 74.3067 95.3822 76.4798 93.2397 77.018L26.3671 93.8135C24.2245 94.3516 22.0514 93.0509 21.5132 90.9083L12.708 55.8496Z" fill="#086981"></path>
  <path d="M12.708 55.8496L54.5061 64.3242L87.3396 37.1054L96.1448 72.1641C96.6829 74.3067 95.3822 76.4798 93.2397 77.018L26.3671 93.8135C24.2245 94.3516 22.0514 93.0509 21.5132 90.9083L12.708 55.8496Z" fill="white" fill-opacity="0.16"></path>
  <path d="M51.7154 60.9277C52.6963 60.0097 54.0726 59.6455 55.3792 59.9581L95.4921 69.5545L96.1476 72.1647C96.6858 74.3073 95.3851 76.4804 93.2425 77.0185L26.3699 93.814C24.2273 94.3522 22.0542 93.0515 21.5161 90.9089L21.1661 89.5155L51.7154 60.9277Z" fill="#086981"></path>
  <path d="M71.3665 41.95C71.0837 42.8749 70.1046 43.3954 69.1796 43.1126L67.689 42.6568C67.2829 43.6402 66.7242 44.64 66.013 45.656C65.5139 46.3369 64.9815 46.9298 64.4159 47.4347C64.0027 47.8035 63.3726 47.695 63.0523 47.2432L61.9749 45.7233C61.6754 45.3007 61.7509 44.7222 62.127 44.366C62.6526 43.8681 63.1031 43.3727 63.4784 42.8797C63.9947 42.1565 64.3795 41.3805 64.633 40.5517C64.9286 39.5849 64.9795 38.8326 64.7855 38.295C64.5985 37.7344 64.1677 37.3509 63.4929 37.1446C62.9917 36.9913 62.4971 37.0918 62.0093 37.4461C61.5286 37.7774 61.0284 38.2412 60.5087 38.8375C59.9769 39.4049 59.437 40.0328 58.8892 40.7212C58.3221 41.4036 57.7113 42.0224 57.0567 42.5774C56.4092 43.1095 55.7162 43.5143 54.9778 43.792C54.2464 44.0466 53.4469 44.0413 52.5794 43.776C51.1528 43.3398 50.1176 42.5197 49.4738 41.316C48.8177 40.0832 48.6047 38.6084 48.8345 36.8914L47.0678 36.3511C46.1429 36.0683 45.6224 35.0892 45.9052 34.1643C46.188 33.2393 47.1671 32.7188 48.0921 33.0016L49.8009 33.5242C50.2738 32.4604 50.849 31.5791 51.5265 30.88C51.9435 30.4498 52.384 30.0602 52.848 29.7111C53.3147 29.36 53.969 29.5514 54.23 30.0738L55.0092 31.6336C55.2301 32.0756 55.0901 32.6074 54.7123 32.9259C54.346 33.2346 54.0333 33.5495 53.7742 33.8707C53.3476 34.3696 53.0217 34.9873 52.7964 35.724C52.543 36.5527 52.494 37.23 52.6494 37.7558C52.8049 38.2817 53.2103 38.6448 53.8658 38.8452C54.3285 38.9867 54.7906 38.8889 55.252 38.5517C55.7013 38.1856 56.1726 37.713 56.6659 37.1338C57.1663 36.5316 57.6903 35.8863 58.2381 35.1979C58.7859 34.5095 59.3836 33.8993 60.0312 33.3673C60.6857 32.8123 61.398 32.4133 62.168 32.1705C62.9257 31.8987 63.7672 31.9043 64.6926 32.1873C66.0806 32.6117 67.1386 33.4261 67.8666 34.6305C68.5753 35.8289 68.8189 37.3761 68.5976 39.2719L70.2038 39.7631C71.1288 40.0459 71.6493 41.025 71.3665 41.95Z" fill="white"></path>
  <path d="M15.3124 72.0811C15.5106 71.8888 15.8271 71.8936 16.0195 72.0917L18.0283 74.1617C18.2206 74.3598 18.2159 74.6764 18.0177 74.8687C17.8196 75.061 17.503 75.0563 17.3107 74.8581L15.3018 72.7882C15.1095 72.59 15.1143 72.2735 15.3124 72.0811Z" fill="black" fill-opacity="0.16"></path>
  <path d="M19.9998 76.911C20.1979 76.7187 20.5145 76.7235 20.7068 76.9216L22.7157 78.9916C22.908 79.1898 22.9032 79.5063 22.7051 79.6986C22.5069 79.8909 22.1904 79.8862 21.998 79.688L19.9892 77.6181C19.7969 77.4199 19.8016 77.1034 19.9998 76.911Z" fill="black" fill-opacity="0.16"></path>
  <path d="M24.6871 81.7409C24.8853 81.5486 25.2018 81.5534 25.3942 81.7515L27.403 83.8215C27.5953 84.0197 27.5906 84.3362 27.3924 84.5285C27.1943 84.7208 26.8777 84.7161 26.6854 84.5179L24.6765 82.448C24.4842 82.2498 24.489 81.9333 24.6871 81.7409Z" fill="black" fill-opacity="0.16"></path>
  <path d="M29.3745 86.5709C29.5726 86.3785 29.8892 86.3833 30.0815 86.5814L32.0904 88.6514C32.2827 88.8496 32.2779 89.1661 32.0798 89.3584C31.8816 89.5507 31.5651 89.546 31.3727 89.3478L29.3639 87.2779C29.1716 87.0797 29.1763 86.7632 29.3745 86.5709Z" fill="black" fill-opacity="0.16"></path>
  <path d="M34.0618 91.4008C34.26 91.2084 34.5765 91.2132 34.7689 91.4114L36.6397 93.3424C36.832 93.5406 36.8273 93.8571 36.6291 94.0495C36.4309 94.2418 36.1144 94.237 35.9221 94.0389L34.0512 92.1078C33.8589 91.9096 33.8637 91.5931 34.0618 91.4008Z" fill="black" fill-opacity="0.16"></path>
  <path d="M63.2235 6.14761C63.4197 5.95719 63.7331 5.96189 63.9235 6.15809L65.9125 8.20756C66.1029 8.40376 66.0982 8.71717 65.902 8.90758C65.7058 9.09799 65.3924 9.0933 65.202 8.8971L63.213 6.84763C63.0226 6.65143 63.0273 6.33802 63.2235 6.14761Z" fill="black" fill-opacity="0.16"></path>
  <path d="M76.6781 20.0353C76.8743 19.8449 77.1877 19.8496 77.3781 20.0458L79.3671 22.0952C79.5575 22.2915 79.5528 22.6049 79.3566 22.7953C79.1604 22.9857 78.847 22.981 78.6566 22.7848L76.6676 20.7353C76.4772 20.5391 76.4819 20.2257 76.6781 20.0353Z" fill="black" fill-opacity="0.16"></path>
  <path d="M81.319 24.8174C81.5153 24.627 81.8287 24.6317 82.0191 24.8279L84.008 26.8773C84.1985 27.0735 84.1938 27.387 83.9976 27.5774C83.8014 27.7678 83.488 27.7631 83.2975 27.5669L81.3086 25.5174C81.1182 25.3212 81.1228 25.0078 81.319 24.8174Z" fill="black" fill-opacity="0.16"></path>
  <path fill-rule="evenodd" clip-rule="evenodd" d="M55.7203 1.11578C54.8869 0.962047 54.0322 0.949243 53.1946 1.07795C52.9244 1.11948 52.6717 0.934071 52.6301 0.663834C52.5886 0.393598 52.774 0.140864 53.0443 0.0993371C53.9913 -0.0461965 54.9576 -0.0317215 55.8999 0.142114C56.1688 0.191716 56.3465 0.44989 56.2969 0.718762C56.2473 0.987633 55.9891 1.16538 55.7203 1.11578ZM50.2046 1.62529C50.3597 1.85044 50.303 2.15871 50.0778 2.31382C49.735 2.55002 49.4069 2.81808 49.0977 3.1182L48.0067 4.17694C47.8105 4.36735 47.4971 4.36266 47.3067 4.16646C47.1163 3.97025 47.121 3.65684 47.3172 3.46643L48.4081 2.40768C48.7571 2.06897 49.128 1.76587 49.5161 1.49848C49.7413 1.34337 50.0495 1.40015 50.2046 1.62529ZM58.6925 1.75244C58.8543 1.53204 59.1641 1.48452 59.3845 1.64631C59.7645 1.9252 60.1261 2.23927 60.4648 2.58829L61.4593 3.61302C61.6497 3.80922 61.645 4.12263 61.4488 4.31305C61.2526 4.50346 60.9392 4.49876 60.7488 4.30256L59.7543 3.27783C59.4542 2.96858 59.1343 2.69082 58.7987 2.44445C58.5783 2.28267 58.5307 1.97284 58.6925 1.75244ZM45.108 6.30024C45.2984 6.49645 45.2937 6.80986 45.0975 7.00027L42.9156 9.11777C42.7194 9.30818 42.406 9.30349 42.2156 9.10728C42.0252 8.91108 42.0299 8.59767 42.2261 8.40726L44.408 6.28976C44.6042 6.09935 44.9176 6.10404 45.108 6.30024ZM40.0169 11.2411C40.2073 11.4373 40.2026 11.7507 40.0064 11.9411L37.8245 14.0586C37.6283 14.249 37.3149 14.2443 37.1245 14.0481C36.9341 13.8519 36.9388 13.5385 37.135 13.3481L39.3169 11.2306C39.5131 11.0402 39.8265 11.0449 40.0169 11.2411ZM34.9258 16.1819C35.1162 16.3781 35.1115 16.6915 34.9153 16.8819L32.7334 18.9994C32.5372 19.1898 32.2238 19.1851 32.0334 18.9889C31.843 18.7927 31.8477 18.4793 32.0439 18.2889L34.2258 16.1714C34.422 15.981 34.7354 15.9857 34.9258 16.1819ZM29.8347 21.1227C30.0251 21.3189 30.0204 21.6323 29.8242 21.8227L27.6423 23.9402C27.4461 24.1307 27.1327 24.126 26.9423 23.9298C26.7519 23.7336 26.7566 23.4201 26.9528 23.2297L29.1347 21.1122C29.3309 20.9218 29.6443 20.9265 29.8347 21.1227ZM24.7436 26.0635C24.934 26.2598 24.9293 26.5732 24.7331 26.7636L22.5512 28.8811C22.355 29.0715 22.0416 29.0668 21.8512 28.8706C21.6608 28.6744 21.6655 28.361 21.8617 28.1706L24.0436 26.0531C24.2398 25.8626 24.5532 25.8673 24.7436 26.0635ZM86.6159 30.2456C86.8121 30.0552 87.1255 30.0599 87.3159 30.2561L89.3049 32.3055C89.4953 32.5017 89.4906 32.8151 89.2944 33.0056C89.0982 33.196 88.7848 33.1913 88.5944 32.9951L86.6054 30.9456C86.415 30.7494 86.4197 30.436 86.6159 30.2456ZM19.6525 31.0044C19.843 31.2006 19.8383 31.514 19.6421 31.7044L17.4602 33.8219C17.264 34.0123 16.9505 34.0076 16.7601 33.8114C16.5697 33.6152 16.5744 33.3018 16.7706 33.1114L18.9525 30.9939C19.1487 30.8035 19.4621 30.8082 19.6525 31.0044ZM91.2569 35.0277C91.4531 34.8372 91.7665 34.8419 91.9569 35.0381L93.9459 37.0876C94.1363 37.2838 94.1316 37.5972 93.9354 37.7876C93.7392 37.9781 93.4258 37.9734 93.2354 37.7771L91.2464 35.7277C91.056 35.5315 91.0607 35.2181 91.2569 35.0277ZM14.5614 35.9452C14.7519 36.1414 14.7472 36.4548 14.551 36.6452L12.3691 38.7627C12.1729 38.9531 11.8594 38.9484 11.669 38.7522C11.4786 38.556 11.4833 38.2426 11.6795 38.0522L13.8614 35.9347C14.0576 35.7443 14.371 35.749 14.5614 35.9452ZM95.8978 39.8097C96.094 39.6193 96.4074 39.624 96.5978 39.8202L97.5923 40.845C97.931 41.194 98.2341 41.5648 98.5015 41.953C98.6566 42.1781 98.5998 42.4864 98.3747 42.6415C98.1496 42.7966 97.8413 42.7398 97.6862 42.5147C97.45 42.1718 97.1819 41.8438 96.8818 41.5345L95.8873 40.5098C95.6969 40.3136 95.7016 40.0002 95.8978 39.8097ZM9.47035 40.886C9.66076 41.0822 9.65607 41.3956 9.45986 41.5861L7.27797 43.7036C7.08177 43.894 6.76835 43.8893 6.57794 43.6931C6.38753 43.4969 6.39222 43.1834 6.58843 42.993L8.77032 40.8755C8.96653 40.6851 9.27994 40.6898 9.47035 40.886ZM99.3362 45.067C99.6064 45.0255 99.8591 45.2109 99.9007 45.4811C100.046 46.4282 100.032 47.3945 99.8579 48.3367C99.8083 48.6056 99.5501 48.7834 99.2812 48.7338C99.0124 48.6842 98.8346 48.426 98.8842 48.1571C99.038 47.3238 99.0508 46.469 98.9221 45.6315C98.8805 45.3612 99.0659 45.1085 99.3362 45.067ZM4.37926 45.8269C4.56967 46.0231 4.56497 46.3365 4.36877 46.5269L3.27782 47.5856C2.96858 47.8857 2.69081 48.2056 2.44445 48.5413C2.28266 48.7617 1.97284 48.8092 1.75244 48.6474C1.53203 48.4856 1.48452 48.1758 1.6463 47.9554C1.9252 47.5754 2.23926 47.2138 2.58828 46.8751L3.67923 45.8164C3.87543 45.626 4.18885 45.6306 4.37926 45.8269ZM98.2476 51.1294C98.468 51.2912 98.5155 51.601 98.3537 51.8214C98.0748 52.2013 97.7607 52.5629 97.4117 52.9017L96.3208 53.9604C96.1246 54.1508 95.8112 54.1461 95.6207 53.9499C95.4303 53.7537 95.435 53.4403 95.6312 53.2499L96.7222 52.1911C97.0314 51.891 97.3092 51.5711 97.5556 51.2355C97.7173 51.0151 98.0272 50.9676 98.2476 51.1294ZM0.718759 51.043C0.98763 51.0926 1.16538 51.3508 1.11578 51.6197C0.962046 52.453 0.949243 53.3077 1.07795 54.1453C1.11948 54.4155 0.934072 54.6683 0.663836 54.7098C0.3936 54.7513 0.140866 54.5659 0.0993386 54.2957C-0.0461961 53.3486 -0.0317222 52.3823 0.142112 51.44C0.191714 51.1712 0.449888 50.9934 0.718759 51.043ZM93.4221 56.0837C93.6125 56.2799 93.6078 56.5933 93.4116 56.7837L91.2297 58.9012C91.0335 59.0916 90.7201 59.0869 90.5297 58.8907C90.3392 58.6945 90.3439 58.3811 90.5401 58.1907L92.722 56.0732C92.9182 55.8828 93.2317 55.8875 93.4221 56.0837ZM1.6253 57.1353C1.85045 56.9802 2.15871 57.0369 2.31382 57.2621C2.55002 57.6049 2.81808 57.933 3.1182 58.2423L4.11269 59.267C4.3031 59.4632 4.2984 59.7766 4.1022 59.967C3.906 60.1574 3.59259 60.1527 3.40217 59.9565L2.40769 58.9318C2.06897 58.5828 1.76588 58.2119 1.49849 57.8238C1.34337 57.5987 1.40015 57.2904 1.6253 57.1353ZM88.331 61.0245C88.5214 61.2207 88.5167 61.5341 88.3205 61.7246L86.1386 63.842C85.9424 64.0325 85.629 64.0278 85.4386 63.8316C85.2482 63.6354 85.2528 63.322 85.449 63.1315L87.6309 61.014C87.8271 60.8236 88.1406 60.8283 88.331 61.0245ZM6.06462 61.9891C6.26083 61.7987 6.57424 61.8034 6.76465 61.9996L8.75363 64.0491C8.94404 64.2453 8.93934 64.5587 8.74314 64.7491C8.54694 64.9395 8.23353 64.9348 8.04311 64.7386L6.05414 62.6892C5.86373 62.493 5.86842 62.1795 6.06462 61.9891ZM83.2399 65.9654C83.4303 66.1616 83.4256 66.475 83.2294 66.6654L81.0475 68.7829C80.8513 68.9733 80.5379 68.9686 80.3475 68.7724C80.1571 68.5762 80.1618 68.2628 80.358 68.0724L82.5398 65.9549C82.7361 65.7645 83.0495 65.7691 83.2399 65.9654ZM10.7056 66.7712C10.9018 66.5808 11.2152 66.5855 11.4056 66.7817L13.3946 68.8312C13.585 69.0274 13.5803 69.3408 13.3841 69.5312C13.1879 69.7216 12.8745 69.7169 12.6841 69.5207L10.6951 67.4712C10.5047 67.275 10.5094 66.9616 10.7056 66.7712ZM78.1488 70.9062C78.3392 71.1024 78.3345 71.4158 78.1383 71.6062L75.9564 73.7237C75.7602 73.9141 75.4468 73.9094 75.2564 73.7132C75.066 73.517 75.0707 73.2036 75.2669 73.0132L77.4488 70.8957C77.645 70.7053 77.9584 70.71 78.1488 70.9062ZM73.0577 75.847C73.2481 76.0432 73.2434 76.3566 73.0472 76.547L70.8653 78.6645C70.6691 78.8549 70.3557 78.8503 70.1653 78.654C69.9749 78.4578 69.9796 78.1444 70.1758 77.954L72.3577 75.8365C72.5539 75.6461 72.8673 75.6508 73.0577 75.847ZM67.9666 80.7878C68.157 80.984 68.1523 81.2974 67.9561 81.4879L65.7742 83.6054C65.578 83.7958 65.2646 83.7911 65.0742 83.5949C64.8838 83.3987 64.8885 83.0853 65.0847 82.8948L67.2666 80.7773C67.4628 80.5869 67.7762 80.5916 67.9666 80.7878ZM62.8755 85.7287C63.0659 85.9249 63.0612 86.2383 62.865 86.4287L60.6831 88.5462C60.4869 88.7366 60.1735 88.7319 59.9831 88.5357C59.7927 88.3395 59.7974 88.0261 59.9936 87.8357L62.1755 85.7182C62.3717 85.5278 62.6851 85.5325 62.8755 85.7287ZM57.7844 90.6695C57.9748 90.8657 57.9701 91.1791 57.7739 91.3695L55.592 93.487C55.3958 93.6774 55.0824 93.6727 54.892 93.4765C54.7016 93.2803 54.7063 92.9669 54.9025 92.7765L57.0844 90.659C57.2806 90.4686 57.594 90.4733 57.7844 90.6695ZM38.5512 95.4637C38.7474 95.2733 39.0608 95.278 39.2512 95.4742L40.2457 96.4989C40.5458 96.8082 40.8657 97.086 41.2013 97.3323C41.4217 97.4941 41.4693 97.8039 41.3075 98.0243C41.1457 98.2447 40.8359 98.2923 40.6155 98.1305C40.2355 97.8516 39.8739 97.5375 39.5352 97.1885L38.5407 96.1638C38.3503 95.9676 38.355 95.6541 38.5512 95.4637ZM52.6933 95.6103C52.8837 95.8065 52.879 96.1199 52.6828 96.3103L51.5919 97.3691C51.2429 97.7078 50.872 98.0109 50.4839 98.2783C50.2587 98.4334 49.9505 98.3766 49.7954 98.1515C49.6403 97.9263 49.697 97.6181 49.9222 97.4629C50.265 97.2267 50.5931 96.9587 50.9023 96.6586L51.9933 95.5998C52.1895 95.4094 52.5029 95.4141 52.6933 95.6103ZM43.7031 99.058C43.7527 98.7891 44.0109 98.6114 44.2797 98.661C45.1131 98.8147 45.9678 98.8275 46.8054 98.6988C47.0756 98.6573 47.3283 98.8427 47.3699 99.1129C47.4114 99.3832 47.226 99.6359 46.9557 99.6774C46.0087 99.823 45.0424 99.8085 44.1001 99.6347C43.8312 99.5851 43.6535 99.3269 43.7031 99.058Z" fill="black" fill-opacity="0.16"></path>
  <path d="M35.6748 94.3296C37.3317 94.3296 38.6748 92.9864 38.6748 91.3296C38.6748 89.6727 37.3317 88.3296 35.6748 88.3296C34.018 88.3296 32.6748 89.6727 32.6748 91.3296C32.6748 92.9864 34.018 94.3296 35.6748 94.3296Z" fill="#872166"></path>
  <path d="M91 63C94.3137 63 97 60.3137 97 57C97 53.6863 94.3137 51 91 51C87.6863 51 85 53.6863 85 57C85 60.3137 87.6863 63 91 63Z" fill="#872166"></path>
  <path d="M25.3613 27.771C27.0182 27.771 28.3613 26.4279 28.3613 24.771C28.3613 23.1141 27.0182 21.771 25.3613 21.771C23.7045 21.771 22.3613 23.1141 22.3613 24.771C22.3613 26.4279 23.7045 27.771 25.3613 27.771Z" fill="#872166"></path>
</svg>
