<?xml version="1.0" encoding="UTF-8"?>
<svg xmlns="http://www.w3.org/2000/svg" id="Layer_1" viewBox="0 0 100 100">
  <defs>
    <style>.cls-1{fill:#872166;}</style>
  </defs>
  <path class="cls-1" d="M82.78,63.3c-1.37,.64-3.57,1.23-5.97,1.23-6.46,0-10.76-4.15-10.76-10.39s4.44-10.91,10.91-10.91c2.25,0,4.01,.59,5.44,1.17l-1.75,4.21c-.88-.35-2.11-.64-3.04-.64-2.69,0-4.94,2.25-4.94,5.97s2.11,5.97,5.15,5.97c1.17,0,2.49-.35,3.33-.64l1.64,4.04Z"></path>
  <path class="cls-1" d="M64.68,62.51c-1.32,.94-4.59,1.96-7.84,1.96-6.61,0-10.76-4.15-10.76-10.53s4.36-10.77,10.03-10.77c4.36,0,8.66,2.34,8.66,9.54v2.4h-12.08c.29,3.34,2.34,4.74,5.09,4.74,2.05,0,4.36-.88,5.09-1.32l1.81,3.98Zm-5.82-10.77c0-2.75-1.17-4.15-2.89-4.15s-3.04,1.38-3.33,4.15h6.23Z"></path>
  <path class="cls-1" d="M38.37,64.03v-13.52c0-1.67-.73-2.6-2.25-2.6-1.61,0-3.04,1.02-3.92,1.76v14.39h-6.4v-20.39h6.02v2.49c1.37-1.23,3.86-2.98,6.84-2.98,2.69,0,6.02,1.38,6.02,6.9v13.96h-6.32Z"></path>
  <path class="cls-1" d="M92.81,64.03h-.64c-1.9,0-5.67-.2-5.67-5.53v-9.8h-3.13v-4.36h3.1v-4.51l6.32-2.19v6.7h3.92v4.36h-3.92v15.33h.03Z"></path>
  <path class="cls-1" d="M100.13,62.28c.84-1.6,.22-3.58-1.38-4.42-1.6-.84-3.58-.22-4.42,1.38-.84,1.6-.22,3.58,1.38,4.42s3.58,.22,4.42-1.38Z"></path>
  <path class="cls-1" d="M.5,56.34v-19.78H7.05v19.78H.5Zm16.64,7.69l-9.59-13.96,8.86-13.6h6.9l-8.92,13.11,10.38,14.45h-7.63Z"></path>
  <path class="cls-1" d="M3.78,64.07c1.81,0,3.28-1.47,3.28-3.28s-1.47-3.28-3.28-3.28-3.28,1.47-3.28,3.28,1.47,3.28,3.28,3.28Z"></path>
</svg>
