<svg width="3800" height="353" viewBox="0 0 3800 353" fill="none" xmlns="http://www.w3.org/2000/svg">
<path d="M2194.63 13.9356C2181.84 6.86424 2166.8 3.32411 2149.52 3.32411H2038.18V273.347H2086.56V169.772H2149.52C2166.8 169.772 2181.84 166.241 2194.63 159.16C2207.43 152.089 2217.22 142.283 2224 129.751C2230.79 117.219 2234.18 102.846 2234.18 86.641C2234.18 70.436 2230.78 56.0366 2224 43.4337C2217.22 30.8309 2207.43 20.9982 2194.63 13.9268V13.9356ZM2180.81 107.572C2177.87 113.811 2173.36 118.759 2167.28 122.423C2161.2 126.087 2153.56 127.919 2144.34 127.919H2086.56V45.1772H2144.34C2157.91 45.1772 2168.12 49.0714 2174.96 56.8508C2181.81 64.6302 2185.24 74.5603 2185.24 86.6498C2185.24 94.3673 2183.76 101.341 2180.82 107.581L2180.81 107.572ZM2587.33 78.9323L2506.33 304.208C2500.44 320.661 2492.7 332.75 2483.1 340.468C2473.49 348.177 2461.53 352.035 2447.2 352.035H2422.55V314.43H2443.75C2450.4 314.43 2455.9 312.085 2460.25 307.394C2464.61 302.695 2472.29 282.799 2474.21 276.436L2402.48 78.9323H2449.31L2495.77 218.378C2498.85 206.934 2541.33 78.9323 2541.33 78.9323H2587.34H2587.33ZM2729.01 177.197C2737.2 185.49 2741.3 198.19 2741.3 215.289C2741.3 227.122 2738.2 237.663 2731.99 246.92C2725.78 256.178 2717.43 263.417 2706.93 268.621C2696.44 273.825 2685.04 276.436 2672.76 276.436H2657.02C2644.36 276.436 2632.54 273.984 2621.6 269.108C2610.66 264.223 2601.77 257.479 2595.59 247.894C2589.23 238.034 2586.24 224.883 2585.99 212.793H2630.53C2631.29 220.635 2632.66 230.352 2638.11 234.972C2644.24 240.167 2650.36 241.53 2657.4 241.53H2670.46C2677.62 241.53 2683.64 239.734 2688.5 236.132C2693.36 232.53 2695.79 226.936 2695.79 219.351C2695.79 212.926 2693.93 207.943 2690.22 204.403C2686.51 200.872 2680.82 198.394 2673.13 196.978L2636.08 189.65C2620.6 186.561 2608.79 180.295 2600.66 170.843C2592.53 161.391 2588.47 149.407 2588.47 134.875C2588.47 123.564 2591.47 113.404 2597.49 104.404C2603.51 95.4028 2611.57 88.4641 2621.68 83.5699C2631.79 78.6845 2642.67 76.2418 2654.32 76.2418H2669.1C2680.87 76.2418 2691.82 78.6226 2701.93 83.3752C2712.04 88.1367 2720.23 94.8541 2726.5 103.527C2732.77 112.21 2736.03 127.99 2736.29 139.3H2692.9C2692.38 132.618 2691.25 123.113 2685.71 117.812C2680.4 112.732 2674.72 110.953 2668.32 110.953H2655.84C2649.31 110.953 2643.94 112.723 2639.71 116.254C2635.49 119.794 2633.38 124.644 2633.38 130.813C2633.38 135.831 2635.14 140.203 2638.66 143.929C2642.17 147.655 2647.32 150.23 2654.11 151.647L2691.92 159.559C2708.43 163.037 2720.78 168.913 2728.98 177.206L2729.01 177.197ZM2919.3 230.432C2917.76 228.317 2916.99 225.069 2916.99 220.697V148.372C2916.99 134.875 2914.11 122.564 2908.35 111.44C2902.58 100.324 2894.27 91.606 2883.39 85.3046C2872.51 79.0031 2859.71 75.8524 2844.99 75.8524H2830.98C2817.92 75.8524 2805.76 78.5872 2794.5 84.0478C2783.23 89.5173 2774.02 97.2613 2766.85 107.289C2759.68 117.316 2756.74 126.45 2755.72 139.309H2800.83C2801.47 130.308 2803.52 125.166 2809.28 120.024C2815.03 114.882 2822.53 112.696 2830.98 112.696H2844.99C2849.85 112.696 2854.4 114.148 2858.62 117.033C2862.84 119.927 2866.17 123.98 2868.6 129.184C2871.03 134.388 2872.25 140.212 2872.25 146.637V150.505L2820.99 158.213C2800.38 161.559 2783.9 168.312 2771.55 178.463C2759.2 188.623 2753.02 202.509 2753.02 220.121C2753.02 231.441 2755.68 241.344 2760.99 249.823C2766.3 258.311 2773.81 264.869 2783.55 269.497C2793.27 274.126 2804.53 276.445 2817.34 276.445C2831.03 276.445 2843.12 273.745 2853.62 268.347C2864.12 262.948 2871.86 255.558 2876.85 246.168C2877.36 255.558 2880.4 262.435 2885.97 266.807C2891.54 271.179 2899.11 273.365 2908.72 273.365H2938.85V235.37C2933.09 235.37 2928.77 235.087 2925.89 234.503C2923.01 233.928 2920.8 232.583 2919.27 230.45L2919.3 230.432ZM2872.26 192.73C2872.26 202.244 2870.31 210.669 2866.41 217.997C2862.5 225.325 2857 231.016 2849.9 235.07C2842.79 239.123 2834.63 241.141 2825.42 241.141C2817.6 241.141 2811.21 239.026 2806.22 234.778C2801.23 230.538 2798.73 225.007 2798.73 218.192C2798.73 209.705 2801.52 203.501 2807.09 199.58C2812.65 195.659 2821.26 192.668 2832.9 190.614L2872.25 183.286V192.739L2872.26 192.73ZM2424.28 235.353C2418.52 235.353 2414.19 235.07 2411.32 234.485C2408.44 233.91 2406.23 232.565 2404.7 230.432C2403.16 228.317 2402.39 225.069 2402.39 220.697V148.372C2402.39 134.875 2399.51 122.564 2393.75 111.44C2387.98 100.324 2379.67 91.606 2368.79 85.3046C2357.91 79.0031 2345.11 75.8524 2330.39 75.8524H2316.38C2303.32 75.8524 2291.16 78.5872 2279.9 84.0478C2268.63 89.5173 2259.42 97.2613 2252.25 107.289C2245.08 117.316 2242.14 126.45 2241.12 139.309H2286.23C2286.87 130.308 2288.92 125.166 2294.68 120.024C2300.43 114.882 2307.93 112.696 2316.38 112.696H2330.39C2335.25 112.696 2339.8 114.148 2344.02 117.033C2348.24 119.927 2351.57 123.98 2354 129.184C2356.43 134.388 2357.65 140.212 2357.65 146.637V150.505L2306.39 158.213C2285.78 161.559 2269.3 168.312 2256.95 178.463C2244.6 188.623 2238.42 202.509 2238.42 220.121C2238.42 231.441 2241.08 241.344 2246.39 249.823C2251.7 258.311 2259.21 264.869 2268.95 269.497C2278.67 274.126 2289.93 276.445 2302.74 276.445C2316.43 276.445 2328.52 273.745 2339.02 268.347C2349.52 262.948 2357.26 255.558 2362.25 246.168C2362.76 255.558 2365.8 262.435 2371.37 266.807C2376.94 271.179 2384.51 273.365 2394.12 273.365H2424.25V235.37L2424.28 235.353ZM2357.66 192.73C2357.66 202.244 2355.71 210.669 2351.81 217.997C2347.9 225.325 2342.4 231.016 2335.3 235.07C2328.19 239.123 2320.03 241.141 2310.82 241.141C2303 241.141 2296.61 239.026 2291.62 234.778C2286.63 230.538 2284.13 225.007 2284.13 218.192C2284.13 209.705 2286.92 203.501 2292.49 199.58C2298.05 195.659 2306.66 192.668 2318.31 190.614L2357.66 183.286V192.739L2357.66 192.73ZM3061.62 116.546H3009.02V273.347H2963.91V116.546H2926.29V78.9323H2963.91V60.6122C2963.91 41.9734 2968.58 27.7598 2977.93 17.9891C2987.27 8.21833 3000.38 3.33296 3017.28 3.33296H3061.62V40.9468H3030.91C3023.48 40.9468 3017.97 42.9116 3014.4 46.8323C3010.81 50.7529 3009.02 56.7623 3009.02 64.8692V78.95H3061.62V116.564V116.546ZM3200.03 88.3845C3188 80.0298 3174.43 75.8436 3159.33 75.8436H3144.55C3130.22 75.8436 3116.62 79.9236 3103.76 88.0924C3090.9 96.2613 3080.49 107.997 3072.56 123.29C3064.63 138.592 3060.66 156.019 3060.66 175.56C3060.66 195.102 3064.34 212.369 3071.7 227.733C3079.06 243.097 3089.23 255.054 3102.22 263.603C3115.21 272.152 3129.58 276.427 3145.32 276.427H3159.53C3172.96 276.427 3185.35 273.462 3196.68 267.55C3208 261.638 3217.31 253.505 3224.61 243.15C3231.9 232.804 3236.18 221.263 3237.47 208.527H3194.46C3192.8 217.015 3188.8 224.122 3182.47 229.839C3176.13 235.565 3168.61 238.424 3159.91 238.424H3145.7C3138.27 238.424 3131.52 235.822 3125.45 230.609C3119.37 225.405 3114.53 217.944 3110.95 208.235C3108.48 201.536 3106.88 194.101 3106.12 185.959H3238.43C3238.57 184.605 3239.2 173.684 3239.2 169.179C3239.2 152.213 3235.67 136.583 3228.63 122.308C3221.6 108.041 3212.06 96.7215 3200.03 88.3668V88.3845ZM3107.82 152.611C3108.72 148.54 3109.9 144.681 3111.34 141.044C3115.18 131.406 3120.2 124.078 3126.41 119.06C3132.62 114.05 3139.12 111.537 3145.9 111.537H3159.33C3165.35 111.537 3170.98 113.342 3176.23 116.936C3181.48 120.538 3185.66 125.52 3188.8 131.884C3191.93 138.247 3193.63 145.159 3193.88 152.62H3107.81L3107.82 152.611ZM3800 139.805V139.964C3800 141.469 3799.4 142.92 3798.34 143.982L3664.26 278.693C3663.73 279.224 3663.01 279.525 3662.26 279.525H3661.42C3659.86 279.525 3658.59 278.25 3658.59 276.684V139.964C3658.59 141.469 3657.99 142.92 3656.93 143.982L3523.68 277.861C3522.62 278.923 3521.18 279.525 3519.68 279.525H3519.52C3518.02 279.525 3516.58 278.923 3515.52 277.861L3382.26 143.982C3381.21 142.92 3380.61 141.469 3380.61 139.964V139.805C3380.61 138.3 3381.21 136.849 3382.26 135.787L3515.5 1.89921C3516.56 0.837173 3518 0.235352 3519.5 0.235352H3519.66C3521.16 0.235352 3522.6 0.837173 3523.66 1.89921L3656.91 135.778C3657.97 136.84 3658.57 138.291 3658.57 139.796V3.0763C3658.57 1.5098 3659.84 0.235352 3661.4 0.235352H3662.24C3662.99 0.235352 3663.71 0.536262 3664.24 1.06728L3798.33 135.778C3799.38 136.84 3799.98 138.291 3799.98 139.796L3800 139.805Z" fill="#141414"/>
<path d="M1759.29 325.36C1766.98 325.36 1773.27 322.539 1778.14 316.898C1783.01 311.513 1786.47 305.102 1788.52 297.666C1790.83 290.486 1791.99 284.204 1791.99 278.819C1791.99 274.203 1791.47 269.716 1790.45 265.357C1789.42 260.741 1787.63 254.972 1785.06 248.048L1723.14 79.5791H1755.44L1801.22 207.277C1803.52 213.944 1806.6 223.688 1810.45 236.509H1811.6L1820.83 207.277L1865.83 79.5791H1897.37L1815.45 307.282C1810.06 322.154 1803.01 333.309 1794.29 340.745C1785.57 348.181 1774.93 351.899 1762.37 351.899H1741.21V325.36H1759.29Z" fill="#141414"/>
<path d="M1615.53 276.509C1606.04 276.509 1596.17 273.56 1585.91 267.662C1575.91 261.765 1568.22 254.585 1562.83 246.123V273.432H1532.06V4.18848H1562.83V107.27C1568.22 98.5518 1575.78 91.2438 1585.53 85.3461C1595.27 79.4484 1605.14 76.4995 1615.15 76.4995H1627.45C1643.1 76.4995 1657.07 80.8587 1669.38 89.5771C1681.94 98.2954 1691.69 110.347 1698.61 125.733C1705.53 140.861 1709 157.785 1709 176.504C1709 195.223 1705.53 212.275 1698.61 227.66C1691.69 242.789 1681.94 254.713 1669.38 263.431C1657.07 272.15 1642.97 276.509 1627.07 276.509H1615.53ZM1625.91 249.2C1634.63 249.2 1642.97 246.123 1650.92 239.969C1658.87 233.815 1665.28 225.224 1670.15 214.198C1675.02 203.172 1677.46 190.607 1677.46 176.504C1677.46 162.401 1675.02 149.836 1670.15 138.81C1665.28 127.784 1658.87 119.194 1650.92 113.04C1642.97 106.886 1634.63 103.808 1625.91 103.808H1611.3C1602.07 103.808 1593.48 106.886 1585.53 113.04C1577.58 119.194 1571.3 127.784 1566.68 138.81C1562.07 149.836 1559.76 162.401 1559.76 176.504C1559.76 190.607 1562.07 203.172 1566.68 214.198C1571.3 225.224 1577.58 233.815 1585.53 239.969C1593.48 246.123 1602.07 249.2 1611.3 249.2H1625.91Z" fill="#141414"/>
<path d="M1295.58 276.509C1279.68 276.509 1265.45 272.15 1252.88 263.431C1240.32 254.713 1230.57 242.789 1223.65 227.66C1216.73 212.275 1213.26 195.223 1213.26 176.504C1213.26 157.785 1216.73 140.861 1223.65 125.733C1230.83 110.347 1240.57 98.2954 1252.88 89.5771C1265.19 80.8587 1279.16 76.4995 1294.81 76.4995H1307.11C1317.11 76.4995 1326.99 79.4484 1336.73 85.3461C1346.73 91.2438 1354.42 98.5518 1359.81 107.27V4.18848H1390.58V273.432H1359.81V246.123C1354.17 254.585 1346.35 261.765 1336.35 267.662C1326.35 273.56 1316.6 276.509 1307.11 276.509H1295.58ZM1310.96 249.2C1320.45 249.2 1329.04 246.123 1336.73 239.969C1344.68 233.815 1350.96 225.224 1355.58 214.198C1360.19 203.172 1362.5 190.607 1362.5 176.504C1362.5 162.401 1360.19 149.836 1355.58 138.81C1350.96 127.784 1344.68 119.194 1336.73 113.04C1329.04 106.886 1320.45 103.808 1310.96 103.808H1296.34C1287.63 103.808 1279.29 106.886 1271.34 113.04C1263.65 119.194 1257.37 127.784 1252.5 138.81C1247.62 149.836 1245.19 162.401 1245.19 176.504C1245.19 190.607 1247.5 203.172 1252.11 214.198C1256.98 225.224 1263.39 233.815 1271.34 239.969C1279.29 246.123 1287.63 249.2 1296.34 249.2H1310.96Z" fill="#141414"/>
<path d="M1010.42 175.35C1010.42 156.375 1014.26 139.322 1021.96 124.194C1029.91 109.065 1040.16 97.3974 1052.73 89.1919C1065.29 80.73 1078.24 76.499 1091.57 76.499H1107.73C1122.09 76.499 1135.04 80.73 1146.58 89.1919C1158.12 97.3974 1167.22 108.424 1173.89 122.27C1180.55 136.117 1183.89 150.99 1183.89 166.888C1183.89 171.76 1183.63 176.76 1183.12 181.889H1042.34C1043.11 195.222 1045.8 207.018 1050.42 217.275C1055.03 227.532 1060.93 235.481 1068.11 241.122C1075.55 246.507 1083.63 249.199 1092.34 249.199H1107.34C1118.88 249.199 1128.63 245.609 1136.58 238.43C1144.78 230.993 1149.91 221.89 1151.96 211.121H1181.58C1180.3 222.916 1176.32 233.814 1169.66 243.814C1162.99 253.815 1154.27 261.764 1143.5 267.662C1132.73 273.559 1120.81 276.508 1107.73 276.508H1091.96C1077.09 276.508 1063.37 272.149 1050.8 263.431C1038.24 254.712 1028.37 242.661 1021.19 227.275C1014.01 211.89 1010.42 194.581 1010.42 175.35ZM1152.35 155.349C1151.83 141.502 1147.22 129.45 1138.5 119.193C1130.04 108.936 1119.78 103.808 1107.73 103.808H1092.73C1081.45 103.808 1071.32 108.424 1062.34 117.655C1053.37 126.886 1047.34 139.451 1044.26 155.349H1152.35Z" fill="#141414"/>
<path d="M969.867 106.119C962.174 106.119 955.379 109.196 949.481 115.35C943.84 121.248 939.481 128.684 936.404 137.659C933.583 146.377 932.173 154.711 932.173 162.66V273.434H901.402V79.5791H932.173V110.734C935.25 101.247 940.25 93.6823 947.174 88.041C954.097 82.3997 962.174 79.5791 971.406 79.5791H998.33V106.119H969.867Z" fill="#141414"/>
<path d="M686.638 175.35C686.638 156.375 690.484 139.322 698.177 124.194C706.126 109.065 716.383 97.3974 728.947 89.1919C741.512 80.73 754.461 76.499 767.795 76.499H783.95C798.31 76.499 811.259 80.73 822.798 89.1919C834.337 97.3974 843.44 108.424 850.107 122.27C856.774 136.117 860.107 150.99 860.107 166.888C860.107 171.76 859.851 176.76 859.338 181.889H718.562C719.332 195.222 722.024 207.018 726.64 217.275C731.255 227.532 737.153 235.481 744.333 241.122C751.769 246.507 759.846 249.199 768.565 249.199H783.565C795.104 249.199 804.848 245.609 812.797 238.43C821.003 230.993 826.131 221.89 828.183 211.121H857.799C856.517 222.916 852.543 233.814 845.876 243.814C839.209 253.815 830.491 261.764 819.721 267.662C808.951 273.559 797.027 276.508 783.95 276.508H768.18C753.307 276.508 739.589 272.149 727.024 263.431C714.46 254.712 704.587 242.661 697.407 227.275C690.228 211.89 686.638 194.581 686.638 175.35ZM828.567 155.349C828.055 141.502 823.439 129.45 814.721 119.193C806.259 108.936 796.002 103.808 783.95 103.808H768.949C757.667 103.808 747.538 108.424 738.563 117.655C729.588 126.886 723.562 139.451 720.485 155.349H828.567Z" fill="#141414"/>
<path d="M400.628 79.5791H432.552L466.4 200.739L473.324 230.74H474.478L482.555 201.123L519.864 79.5791H551.02L587.944 201.123C589.996 207.79 592.56 217.662 595.637 230.74H596.791L603.714 201.123L637.947 79.5791H669.487L613.33 273.434H581.79L543.712 151.506L536.019 121.889H534.865L526.788 151.121L488.324 273.434H456.4L400.628 79.5791Z" fill="#141414"/>
<path d="M287.05 276.508C271.408 276.508 257.176 272.149 244.355 263.431C231.791 254.712 221.918 242.789 214.738 227.66C207.559 212.275 203.969 195.222 203.969 176.504C203.969 157.785 207.559 140.861 214.738 125.732C221.918 110.347 231.791 98.2949 244.355 89.5765C257.176 80.8582 271.408 76.499 287.05 76.499H300.512C316.153 76.499 330.257 80.8582 342.821 89.5765C355.642 98.0385 365.643 109.962 372.823 125.347C380.003 140.476 383.592 157.528 383.592 176.504C383.592 195.479 380.003 212.659 372.823 228.044C365.643 243.173 355.771 255.097 343.206 263.815C330.641 272.277 316.538 276.508 300.896 276.508H287.05ZM301.281 249.199C310.512 249.199 318.974 246.122 326.667 239.968C334.359 233.814 340.514 225.224 345.129 214.198C349.745 202.915 352.053 190.35 352.053 176.504C352.053 162.657 349.745 150.22 345.129 139.194C340.514 128.168 334.359 119.578 326.667 113.424C318.974 107.013 310.512 103.808 301.281 103.808H286.665C277.434 103.808 268.844 106.885 260.894 113.039C253.202 119.193 247.048 127.783 242.432 138.81C238.073 149.836 235.893 162.4 235.893 176.504C235.893 190.607 238.073 203.172 242.432 214.198C247.048 225.224 253.202 233.814 260.894 239.968C268.844 246.122 277.434 249.199 286.665 249.199H301.281Z" fill="#141414"/>
<path d="M0 4.18848H108.082C124.493 4.18848 138.853 7.52197 151.161 14.189C163.469 20.8559 172.829 30.2153 179.239 42.2672C185.906 54.319 189.24 68.1658 189.24 83.8076C189.24 99.4493 185.906 113.296 179.239 125.348C172.829 137.4 163.469 146.759 151.161 153.426C138.853 160.093 124.493 163.427 108.082 163.427H33.0785V273.432H0V4.18848ZM105.39 134.579C122.57 134.579 135.263 129.707 143.468 119.963C151.674 110.219 155.776 98.1672 155.776 83.8076C155.776 69.1915 151.545 57.1397 143.084 47.652C134.878 37.908 122.313 33.036 105.39 33.036H33.0785V134.579H105.39Z" fill="#141414"/>
</svg>
